<svg width="914" height="400" fill="none" xmlns="http://www.w3.org/2000/svg"><path d="M422.299 226c.7 0 1.26-.56 1.26-1.26s-.56-1.26-1.26-1.26h-.672v-5.712c0-2.436-.896-4.872-4.704-4.872-1.876 0-3.052.868-3.584 1.68v-7c0-.784-.588-1.512-1.428-1.512h-2.268c-.7 0-1.26.56-1.26 1.26 0 .728.56 1.26 1.26 1.26h.672v14.896h-.672c-.7 0-1.26.56-1.26 1.26 0 .728.56 1.26 1.26 1.26h4.368c.7 0 1.26-.56 1.26-1.26s-.56-1.26-1.26-1.26h-.672v-4.816c0-1.736.7-3.024 2.8-3.024 1.82 0 2.464 1.092 2.464 2.688v5.152h-.672c-.7 0-1.26.56-1.26 1.26 0 .728.56 1.26 1.26 1.26h4.368Zm4.036-12.712h-.644c-.7 0-1.26.56-1.26 1.26s.56 1.26 1.26 1.26h.644v6.608c0 2.212 1.624 3.808 4.256 3.808.728 0 1.316-.588 1.316-1.316 0-.728-.588-1.316-1.316-1.316-.616 0-1.288-.364-1.288-1.008v-6.776h1.26c.7 0 1.26-.56 1.26-1.26s-.56-1.26-1.26-1.26h-1.26v-2.352c0-.812-.672-1.484-1.484-1.484-.812 0-1.484.672-1.484 1.484v2.352ZM439.036 226c.7 0 1.26-.56 1.26-1.26s-.56-1.26-1.26-1.26h-.672v-4.844c0-1.708.7-2.996 2.8-2.996 1.82 0 2.464 1.092 2.464 2.688v5.152h-.672c-.7 0-1.26.56-1.26 1.26 0 .728.56 1.26 1.26 1.26h4.368c.7 0 1.26-.56 1.26-1.26s-.56-1.26-1.26-1.26h-.672v-5.18c0-1.568.784-2.66 2.8-2.66 1.82 0 2.464 1.092 2.464 2.688v5.152h-.672c-.7 0-1.26.56-1.26 1.26 0 .728.56 1.26 1.26 1.26h4.368c.7 0 1.26-.56 1.26-1.26s-.56-1.26-1.26-1.26h-.672v-5.712c0-2.436-1.036-4.872-4.844-4.872-1.904 0-3.108.616-4.004 1.82-.7-1.092-1.848-1.82-4.144-1.82-1.876 0-3.052.868-3.584 1.68 0-.812-.616-1.288-1.428-1.288h-2.268c-.7 0-1.26.56-1.26 1.26 0 .728.56 1.26 1.26 1.26h.672v7.672h-.672c-.7 0-1.26.56-1.26 1.26 0 .728.56 1.26 1.26 1.26h4.368Zm24.44-2.576h-.924c-.252 0-.476-.196-.476-.504v-15.344c0-.812-.616-1.512-1.428-1.512h-2.268c-.7 0-1.26.56-1.26 1.26 0 .728.56 1.26 1.26 1.26h.672v14.056c0 2.352 1.372 3.584 3.556 3.584h.868c.728 0 1.316-.616 1.316-1.4 0-.784-.588-1.4-1.316-1.4Zm8.469 2.94c2.296 0 3.836-1.008 4.48-1.596.336-.308.476-.672.476-1.036 0-.756-.588-1.344-1.344-1.344-.252 0-.532.056-.84.28-.644.476-1.484 1.12-2.772 1.12-1.96 0-3.024-1.484-3.024-4.172 0-2.632 1.064-4.144 3.024-4.144 1.4 0 2.128.728 2.492 1.092.252.252.588.476 1.036.476.756 0 1.344-.588 1.344-1.344 0-.336-.084-.56-.308-.868-.476-.644-1.988-1.932-4.564-1.932-3.78 0-6.076 2.156-6.076 6.72s2.296 6.748 6.076 6.748Zm18.875-6.72c0-4.592-2.352-6.748-6.132-6.748s-6.132 2.156-6.132 6.748c0 4.564 2.352 6.72 6.132 6.72s6.132-2.156 6.132-6.72Zm-6.132 4.144c-2.016 0-3.08-1.4-3.08-4.144 0-2.772 1.064-4.172 3.08-4.172s3.08 1.4 3.08 4.172c0 2.744-1.064 4.144-3.08 4.144Zm12.016-7.98c.7 0 1.26-.56 1.26-1.26s-.56-1.26-1.26-1.26h-3.808c-.7 0-1.26.56-1.26 1.26 0 .728.56 1.26 1.26 1.26h.308l4.2 9.492c.252.56.756.924 1.4.924.644 0 1.148-.364 1.4-.924l4.2-9.492h.308c.7 0 1.26-.56 1.26-1.26s-.56-1.26-1.26-1.26h-3.808c-.7 0-1.26.56-1.26 1.26 0 .728.56 1.26 1.26 1.26h.252l-2.352 5.992-2.38-5.992h.28Z" fill="#333"/><path d="M407.408 185.043c-1.459.794-3.083 1.191-4.873 1.191-2.071 0-3.747-.644-5.03-1.933-1.282-1.289-1.923-2.995-1.923-5.117 0-2.168.7-3.946 2.099-5.332 1.406-1.394 3.19-2.09 5.352-2.09 1.556 0 2.864.228 3.926.683v2.393c-1.075-.716-2.354-1.074-3.838-1.074-1.491 0-2.715.491-3.672 1.474-.951.983-1.426 2.256-1.426 3.819 0 1.608.41 2.874 1.231 3.798.82.918 1.933 1.377 3.339 1.377.964 0 1.797-.185 2.5-.556v-3.33h-2.949v-1.953h5.264v6.65Zm3.506-11.143c-.371 0-.69-.12-.957-.361a1.198 1.198 0 0 1-.391-.918c0-.371.131-.68.391-.928.267-.247.586-.371.957-.371.384 0 .71.124.977.371.267.248.4.557.4.928 0 .352-.133.654-.4.908a1.383 1.383 0 0 1-.977.371Zm1.123 12.1h-2.266v-10h2.266v10Zm7.842-.107c-.442.221-1.025.332-1.748.332-1.94 0-2.91-.931-2.91-2.793v-5.655h-1.67V176h1.67v-2.314l2.266-.645V176h2.392v1.777h-2.392v5c0 .593.107 1.016.322 1.27.215.254.573.381 1.074.381.384 0 .716-.111.996-.332v1.797Zm13.057.107h-2.334v-6.074h-6.591V186h-2.325v-14.004h2.325v5.889h6.591v-5.889h2.334V186Zm11.524 0h-2.265v-1.582h-.04c-.657 1.211-1.679 1.816-3.066 1.816-2.363 0-3.545-1.419-3.545-4.257V176h2.266v5.742c0 1.797.693 2.696 2.08 2.696.67 0 1.221-.248 1.65-.743.436-.494.655-1.142.655-1.943V176h2.265v10Zm4.864-1.445h-.039V186h-2.266v-14.805h2.266v6.563h.039c.775-1.328 1.907-1.992 3.398-1.992 1.263 0 2.25.449 2.959 1.347.716.892 1.074 2.09 1.074 3.594 0 1.673-.4 3.014-1.201 4.023-.8 1.003-1.894 1.504-3.281 1.504-1.302 0-2.285-.56-2.949-1.679Zm-.059-3.975v1.24c0 .729.231 1.348.694 1.856.468.508 1.061.762 1.777.762.84 0 1.497-.326 1.973-.977.481-.658.722-1.572.722-2.744 0-.983-.224-1.752-.674-2.305-.442-.56-1.045-.84-1.806-.84-.808 0-1.459.287-1.953.86-.489.573-.733 1.289-.733 2.148Zm26.271 5.42h-2.549l-1.26-3.564h-5.508L465.008 186h-2.539l5.244-14.004h2.617L475.536 186Zm-4.424-5.459-1.944-5.586a6.696 6.696 0 0 1-.185-.879h-.039a5.716 5.716 0 0 1-.196.879l-1.923 5.586h4.287Zm12.861 5c-.8.462-1.748.693-2.841.693-1.485 0-2.683-.462-3.594-1.386-.912-.931-1.367-2.136-1.367-3.614 0-1.647.488-2.968 1.465-3.964.983-1.003 2.294-1.504 3.935-1.504.912 0 1.716.159 2.412.478v2.11c-.696-.521-1.439-.782-2.226-.782-.957 0-1.742.326-2.354.977-.612.644-.918 1.491-.918 2.539 0 1.035.287 1.852.86 2.451.579.599 1.354.899 2.324.899.814 0 1.582-.29 2.304-.87v1.973Zm7.13.352c-.443.221-1.026.332-1.748.332-1.94 0-2.91-.931-2.91-2.793v-5.655h-1.67V176h1.67v-2.314l2.265-.645V176h2.393v1.777h-2.393v5c0 .593.108 1.016.322 1.27.215.254.573.381 1.075.381.384 0 .716-.111.996-.332v1.797Zm2.695-11.993c-.371 0-.69-.12-.957-.361a1.197 1.197 0 0 1-.39-.918c0-.371.13-.68.39-.928.267-.247.586-.371.957-.371.385 0 .71.124.977.371.267.248.4.557.4.928 0 .352-.133.654-.4.908a1.381 1.381 0 0 1-.977.371Zm1.123 12.1h-2.265v-10h2.265v10Zm7.003.234c-1.543 0-2.777-.465-3.701-1.396-.918-.938-1.377-2.178-1.377-3.721 0-1.679.478-2.991 1.435-3.935.964-.944 2.259-1.416 3.887-1.416 1.562 0 2.78.459 3.652 1.377.873.918 1.309 2.19 1.309 3.818 0 1.595-.472 2.874-1.416 3.838-.938.957-2.201 1.435-3.789 1.435Zm.107-8.662c-.885 0-1.585.31-2.099.928-.515.618-.772 1.471-.772 2.559 0 1.048.261 1.875.781 2.48.521.599 1.218.899 2.09.899.892 0 1.576-.297 2.051-.889.482-.593.723-1.436.723-2.529 0-1.101-.241-1.95-.723-2.549-.475-.599-1.159-.899-2.051-.899ZM517.95 186h-2.266v-5.635c0-1.868-.661-2.803-1.982-2.803-.691 0-1.26.261-1.709.782-.45.514-.674 1.165-.674 1.953V186h-2.276v-10h2.276v1.66h.039c.748-1.263 1.829-1.894 3.242-1.894 1.087 0 1.917.354 2.49 1.064.573.703.86 1.722.86 3.057V186Z" fill="silver"/></svg>